<svg version="1.0" xmlns="http://www.w3.org/2000/svg" width="750.000000pt" height="512.000000pt" viewBox="0 0 750.000000 512.000000" preserveAspectRatio="xMidYMid meet">

<g transform="translate(0.000000,512.000000) scale(0.100000,-0.100000)" fill="#ffffff" stroke="none">
<path d="M3078 4460 c-212 -53 -385 -213 -455 -424 l-27 -81 -4 -606 -3 -607 -77 -6 c-141 -11 -1355 -9 -1383 2 -58 23 -85 96 -58 154 28 62 115 84 194 49 60 -27 120 -27 163 -1 60 37 75 121 31 169 -10 11 -49 35 -86 53 -64 31 -74 33 -178 33 -93 0 -118 -4 -165 -24 -89 -38 -156 -95 -198 -170 -35 -63 -37 -71 -37 -156 0 -73 4 -99 23 -138 45 -94 124 -162 231 -198 53 -19 90 -20 753 -19 384 0 718 3 743 7 l45 6 0 -125 0 -125 -1072 -7 c-815 -6 -1091 -11 -1150 -21 -146 -25 -280 -121 -339 -242 -31 -63 -39 -228 -15 -299 34 -101 145 -208 264 -255 49 -20 76 -23 182 -23 114 0 131 2 191 27 82 35 178 110 202 159 34 69 -6 142 -91 164 -42 11 -91 -6 -143 -51 -65 -55 -105 -69 -181 -62 -102 9 -177 82 -178 172 0 74 68 153 149 174 20 5 513 13 1109 17 l1072 7 0 -115 0 -115 -52 -7 c-29 -3 -246 -6 -483 -6 -236 0 -463 -5 -503 -10 -143 -19 -255 -97 -311 -220 -31 -66 -33 -78 -29 -149 4 -60 11 -88 34 -131 39 -72 105 -134 184 -173 62 -30 70 -32 185 -32 117 1 122 2 189 35 98 49 128 108 92 179 -19 35 -50 56 -99 65 -29 5 -50 1 -97 -20 -83 -37 -141 -31 -187 20 -52 57 -43 120 24 166 l37 25 325 3 c179 1 408 3 507 5 l181 2 6 -185 c4 -152 9 -198 27 -255 51 -166 177 -312 337 -394 24 -12 80 -30 125 -41 81 -19 123 -20 1858 -20 1744 0 1776 0 1859 20 219 53 394 219 463 440 l23 75 0 1385 0 1385 -23 75 c-53 171 -177 316 -339 399 -24 12 -80 30 -125 41 -81 19 -122 20 -1863 19 -1715 0 -1783 -1 -1857 -19z m3657 -429 c84 -39 125 -110 125 -218 l0 -68 -871 -555 c-480 -305 -897 -570 -928 -587 -69 -40 -123 -49 -178 -30 -22 8 -451 274 -952 593 l-911 579 0 68 c0 108 41 179 125 218 38 18 108 19 1795 19 1687 0 1757 -1 1795 -19z m-2875 -1326 c404 -258 764 -483 800 -501 91 -46 168 -64 280 -64 113 0 191 18 280 63 36 18 419 259 853 534 l787 501 0 -991 c0 -661 -4 -1005 -11 -1030 -13 -49 -63 -105 -114 -128 -38 -18 -119 -19 -1795 -19 -1676 0 -1757 1 -1795 19 -51 23 -101 79 -114 128 -7 25 -11 369 -11 1030 l0 993 53 -34 c28 -18 383 -244 787 -501z" fill="#ffffff"/>
<path d="M5131 3953 c-43 -22 -91 -87 -92 -127 -1 -70 -10 -71 -74 -5 -67 69 -105 89 -166 89 -118 0 -201 -124 -158 -237 5 -15 44 -62 85 -104 l75 -76 -48 -18 c-26 -10 -69 -33 -95 -51 l-47 -33 -43 23 c-197 109 -419 -91 -327 -294 35 -78 93 -122 177 -136 35 -5 41 -10 51 -44 14 -48 91 -134 145 -163 39 -21 54 -22 333 -25 l292 -3 17 27 c16 24 16 29 3 53 -12 22 -23 27 -63 29 l-48 3 4 54 c7 85 57 125 158 125 61 0 106 18 142 56 38 41 48 75 48 162 0 107 -28 192 -83 258 -23 27 -25 39 -29 182 -5 149 -6 154 -34 194 -16 23 -45 49 -64 59 -43 23 -114 24 -159 2z m123 -125 c11 -16 16 -46 16 -104 l0 -82 -57 18 -58 18 -3 62 c-4 76 14 110 58 110 19 0 34 -8 44 -22z m-309 -153 c118 -110 126 -115 167 -115 93 0 206 -79 249 -174 22 -49 27 -200 7 -213 -7 -4 -52 -13 -99 -19 -70 -9 -94 -17 -133 -43 l-48 -33 -21 21 c-52 48 -153 66 -189 34 -38 -35 -10 -87 53 -97 26 -4 52 -17 71 -36 26 -26 29 -35 26 -82 l-3 -53 -120 -3 c-200 -5 -256 9 -309 81 -17 23 -21 43 -21 105 0 95 31 168 98 236 60 60 111 84 204 97 79 11 113 31 113 66 0 9 -54 71 -120 138 -98 100 -120 128 -120 152 0 16 5 34 12 41 29 29 59 12 183 -103z m-431 -365 c12 -9 9 -21 -15 -68 -16 -31 -31 -76 -35 -99 -5 -37 -10 -43 -31 -43 -15 0 -39 14 -59 34 -28 28 -34 42 -34 76 0 52 13 76 53 101 34 21 95 21 121 -1z" fill="#ffffff"/>
<path d="M5174 3367 c-21 -19 -26 -29 -20 -50 8 -32 39 -51 72 -43 50 13 56 83 9 104 -33 15 -29 16 -61 -11z" fill="#ffffff"/>
<path d="M4859 1923 c-9 -2 -21 -15 -27 -28 -9 -19 -8 -28 4 -40 9 -8 19 -15 22 -15 17 0 52 33 52 49 0 17 -19 42 -29 40 -4 -1 -13 -3 -22 -6z" fill="#ffffff"/>
<path d="M5097 1903 c-4 -3 -7 -17 -7 -30 0 -21 5 -23 44 -23 l44 0 -39 -152 c-44 -173 -47 -208 -21 -231 43 -39 135 -29 140 15 3 25 2 25 -41 21 -26 -3 -47 -1 -51 5 -4 6 14 92 39 191 25 99 45 187 45 196 0 12 -14 15 -73 15 -41 0 -77 -3 -80 -7z" fill="#ffffff"/>
<path d="M3977 1873 c-6 -10 -127 -408 -127 -417 0 -3 13 -6 29 -6 32 0 29 -7 96 224 14 50 26 91 28 92 1 1 2 -52 2 -119 l0 -122 28 -3 c26 -3 30 2 87 120 32 68 59 120 59 117 1 -3 -10 -60 -23 -125 -41 -207 -41 -186 -4 -182 l32 3 37 190 c49 245 48 235 1 235 l-39 0 -61 -127 -62 -128 0 128 0 127 -39 0 c-22 0 -42 -3 -44 -7z" fill="#ffffff"/>
<path d="M5554 1866 c-92 -40 -155 -143 -161 -266 -4 -62 -1 -80 16 -107 35 -55 134 -66 220 -25 33 16 36 23 58 107 12 50 23 96 23 103 0 8 -22 12 -75 12 l-75 0 0 -30 c0 -28 3 -30 35 -30 39 0 40 -2 24 -66 -13 -50 -34 -64 -93 -64 -68 0 -86 66 -52 184 34 117 140 177 207 119 14 -12 19 -11 40 7 l24 20 -28 25 c-23 20 -38 25 -80 25 -29 -1 -66 -7 -83 -14z" fill="#ffffff"/>
<path d="M4361 1769 c-15 -6 -21 -14 -17 -25 3 -9 6 -20 6 -25 0 -5 11 -4 26 1 66 26 131 1 115 -43 -6 -17 -17 -23 -47 -25 -105 -6 -153 -34 -174 -98 -18 -52 1 -91 52 -106 34 -10 46 -9 89 9 27 12 49 17 49 12 0 -5 10 -14 23 -18 28 -12 48 11 41 48 -3 15 4 63 15 108 27 103 26 125 -2 151 -19 18 -35 22 -88 21 -35 0 -75 -5 -88 -10z m109 -178 c0 -39 -19 -68 -55 -86 -69 -32 -110 11 -65 68 20 25 40 33 93 36 20 1 27 -4 27 -18z" fill="#ffffff"/>
<path d="M4726 1764 c-11 -29 -6 -34 40 -34 41 0 46 -2 41 -20 -3 -11 -15 -63 -28 -115 l-23 -94 -50 -3 c-44 -3 -51 -6 -54 -25 -3 -23 -2 -23 121 -23 l125 0 4 25 c5 24 3 25 -39 25 -41 0 -43 2 -38 23 4 13 19 76 34 140 l28 117 -77 0 c-62 0 -79 -3 -84 -16z" fill="#ffffff"/>
<path d="M5874 1761 c-82 -50 -129 -193 -89 -271 9 -17 28 -33 50 -40 111 -37 229 78 230 223 0 52 -3 61 -28 83 -36 31 -116 33 -163 5z m114 -43 c30 -30 -1 -163 -45 -198 -27 -21 -68 -26 -93 -10 -34 21 -1 162 47 200 29 22 73 26 91 8z" fill="#ffffff"/>
</g>
</svg>